<?xml version="1.0" standalone="no"?>
<!DOCTYPE svg PUBLIC "-//W3C//DTD SVG 20010904//EN"
 "http://www.w3.org/TR/2001/REC-SVG-20010904/DTD/svg10.dtd">
<svg version="1.0" xmlns="http://www.w3.org/2000/svg"
 width="512.000000pt" height="512.000000pt" viewBox="0 0 512.000000 512.000000"
 preserveAspectRatio="xMidYMid meet">
<metadata>
Created by potrace 1.11, written by Peter Selinger 2001-2013
</metadata>
<g transform="translate(0.000000,512.000000) scale(0.100000,-0.100000)"
fill="#000000" stroke="none">
<path d="M420 5106 c0 -2 51 -106 113 -232 62 -126 120 -243 128 -260 12 -27
14 -308 14 -2055 l-1 -2024 -58 -120 c-33 -66 -90 -182 -127 -259 -38 -76 -69
-139 -69 -141 0 -2 704 -3 1564 -3 l1563 0 37 131 c21 73 42 146 47 162 5 17
32 111 59 210 28 99 54 194 59 210 6 17 24 80 41 140 17 61 33 117 36 126 4
16 -73 17 -1008 17 -557 1 -1019 1 -1025 1 -10 1 -13 418 -13 2051 l0 2050
-680 0 c-374 0 -680 -2 -680 -4z"/>
<path d="M2428 4785 c-2 -2 -41 -6 -88 -9 -78 -7 -295 -40 -330 -51 -13 -4
-15 -33 -14 -187 1 -115 5 -182 12 -181 5 1 20 4 33 6 13 3 42 10 64 16 22 5
59 13 83 16 24 3 53 7 65 10 115 27 461 28 627 1 521 -85 985 -362 1310 -782
91 -118 203 -319 260 -465 31 -81 76 -222 84 -264 2 -11 11 -56 19 -100 20
-102 30 -215 31 -335 0 -95 -12 -298 -18 -309 -2 -3 -7 -23 -10 -45 -11 -67
-55 -231 -87 -322 -71 -204 -211 -447 -335 -583 -27 -29 -46 -74 -69 -161 -10
-36 -26 -94 -37 -130 -11 -36 -21 -72 -23 -80 -2 -8 -15 -55 -30 -105 -14 -49
-28 -97 -30 -105 -2 -8 -11 -37 -19 -65 -9 -27 -16 -51 -16 -53 0 -1 37 25 83
58 180 132 367 318 493 490 67 92 114 160 114 166 0 3 9 19 20 34 32 45 156
299 183 376 63 177 109 372 134 569 10 81 10 404 0 490 -15 121 -14 117 -43
260 -13 67 -82 294 -94 310 -4 6 -13 28 -20 50 -17 54 -84 192 -141 292 -44
77 -126 202 -138 213 -4 3 -19 23 -36 45 -42 57 -39 53 -107 129 -299 331
-664 566 -1083 697 -74 23 -254 65 -316 73 -25 4 -57 8 -70 11 -79 12 -162 18
-301 20 -87 1 -159 1 -160 0z"/>
<path d="M2439 4216 c-2 -2 -40 -7 -84 -10 -101 -8 -337 -62 -350 -80 -7 -8
-9 -504 -8 -1447 1 -789 2 -1440 2 -1446 1 -10 196 -13 939 -13 l938 0 31 38
c17 20 45 53 63 72 17 19 52 66 78 105 26 38 52 76 59 83 24 25 142 278 173
370 59 174 82 316 86 522 4 237 -16 377 -83 580 -161 492 -546 900 -1031 1094
-153 61 -239 84 -452 121 -42 7 -354 17 -361 11z"/>
<path d="M417 3478 c-70 -140 -153 -359 -171 -449 -2 -13 -10 -46 -16 -74 -19
-84 -40 -206 -48 -280 -13 -138 -5 -546 13 -574 2 -4 6 -27 10 -51 29 -200
121 -479 219 -667 l33 -63 0 1115 c0 613 0 1115 -1 1115 -1 0 -18 -33 -39 -72z"/>
</g>
</svg>
